<?xml version="1.0" encoding="UTF-8" standalone="no"?>
<!-- Created with Inkscape (http://www.inkscape.org/) -->

<svg
   xmlns:dc="http://purl.org/dc/elements/1.1/"
   xmlns:cc="http://creativecommons.org/ns#"
   xmlns:rdf="http://www.w3.org/1999/02/22-rdf-syntax-ns#"
   xmlns:svg="http://www.w3.org/2000/svg"
   xmlns="http://www.w3.org/2000/svg"
   xmlns:sodipodi="http://sodipodi.sourceforge.net/DTD/sodipodi-0.dtd"
   xmlns:inkscape="http://www.inkscape.org/namespaces/inkscape"
   width="50mm"
   height="50mm"
   viewBox="0 0 50 50"
   version="1.1"
   id="svg8"
   inkscape:version="0.92.2 (5c3e80d, 2017-08-06)"
   sodipodi:docname="github-drop.svg">
  <defs
     id="defs2" />
  <sodipodi:namedview
     id="base"
     pagecolor="#ffffff"
     bordercolor="#666666"
     borderopacity="1.0"
     inkscape:pageopacity="0.0"
     inkscape:pageshadow="2"
     inkscape:zoom="2.4445464"
     inkscape:cx="91.381084"
     inkscape:cy="75.654983"
     inkscape:document-units="mm"
     inkscape:current-layer="layer1"
     showgrid="false"
     fit-margin-top="0"
     fit-margin-left="0"
     fit-margin-right="0"
     fit-margin-bottom="0"
     inkscape:window-width="1366"
     inkscape:window-height="745"
     inkscape:window-x="1912"
     inkscape:window-y="520"
     inkscape:window-maximized="1" />
  <metadata
     id="metadata5">
    <rdf:RDF>
      <cc:Work
         rdf:about="">
        <dc:format>image/svg+xml</dc:format>
        <dc:type
           rdf:resource="http://purl.org/dc/dcmitype/StillImage" />
        <dc:title></dc:title>
      </cc:Work>
    </rdf:RDF>
  </metadata>
  <g
     inkscape:label="レイヤー 1"
     inkscape:groupmode="layer"
     id="layer1"
     transform="translate(66.240967,-88.31256)">
    <g
       id="surface1"
       transform="matrix(2.0833333,0,0,2.1359604,-74.5743,79.768718)">
      <path
         id="path815"
         d="M 16,4 C 9.371094,4 4,9.371094 4,16 c 0,5.300781 3.4375,9.800781 8.207031,11.386719 0.601563,0.109375 0.820313,-0.257813 0.820313,-0.578125 l 0.188995,-3.349486 C 13.354881,22.212985 13.648116,21.639273 14.344635,21.19078 11.680575,20.89 8.34375,19.972656 8.34375,15.375 c 0,-1.3125 0.46875,-2.382812 1.234375,-3.222656 -0.121094,-0.300781 -0.535156,-1.523438 0.117188,-3.175781 0,0 1.007812,-0.320313 3.300781,1.230468 C 13.953125,9.941406 14.980469,9.808594 16,9.804688 c 1.019531,0.00391 2.046875,0.136718 3.003906,0.402343 2.292969,-1.550781 3.296875,-1.230468 3.296875,-1.230468 0.65625,1.652343 0.246094,2.875 0.121094,3.175781 0.769531,0.839844 1.230469,1.910156 1.230469,3.222656 0,4.609375 -2.804688,5.621094 -5.476563,5.921875 0.429688,0.367188 0.8125,1.101563 0.8125,2.21875 0,1.605469 -0.01172,2.898438 -0.01172,3.292969 0,0.320312 0.214843,0.695312 0.824218,0.578125 C 24.566406,25.796875 28,21.300781 28,16 28,9.371094 22.628906,4 16,4 Z"
         style="fill-rule:evenodd"
         inkscape:connector-curvature="0"
         sodipodi:nodetypes="ssccccscccccccscsscss" />
    </g>
  </g>
</svg>
